# xmcd CD database file
#
# Track frame offsets:
#	150
#	7145
#	28637
#	44187
#	60845
#	77750
#	95050
#	111557
#	115872
#	130257
#	146252
#	162140
#
# Disc length: 2349 seconds
#
# Revision: 2
# Processed by: cddbd v1.5.1PL2 Copyright (c) Steve Scherf et al.
# Submitted via: CDex 1.51
#
DISCID=a2092b0c
DTITLE=Dynamic Twins - Above The Ground
DYEAR=1996
DGENRE=Hip-Hop
TTITLE0=Prelude
TTITLE1=H.G. Funk
TTITLE2=Ways of Cain
TTITLE3=Laughter and Tears
TTITLE4=Ready or Not
TTITLE5=Relaxin'
TTITLE6=The Blood Cries
TTITLE7=Little Robert Anthem
TTITLE8=Above The Ground
TTITLE9=Dying To Live
TTITLE10=I'll Be There
TTITLE11=Critical Styles
EXTD=The first track has no title, so I am calling it "Prelude" YEAR: 1996
EXTT0=
EXTT1=
EXTT2=
EXTT3=
EXTT4=
EXTT5=
EXTT6=
EXTT7=
EXTT8=
EXTT9=
EXTT10=
EXTT11=
PLAYORDER=
